<?xml version="1.0" encoding="UTF-8"?>
<!DOCTYPE svg PUBLIC "-//W3C//DTD SVG 1.1//EN" "http://www.w3.org/Graphics/SVG/1.1/DTD/svg11.dtd">
<!-- Creator: CorelDRAW 2018 (64-Bit) -->
<svg xmlns="http://www.w3.org/2000/svg" xml:space="preserve" width="968px" height="471px" version="1.1" style="shape-rendering:geometricPrecision; text-rendering:geometricPrecision; image-rendering:optimizeQuality; fill-rule:evenodd; clip-rule:evenodd"
viewBox="0 0 301.72 146.76"
 xmlns:xlink="http://www.w3.org/1999/xlink">
 <defs>
  <style type="text/css">
   <![CDATA[
    .fil3 {fill:none;fill-rule:nonzero}
    .fil6 {fill: #373435;fill-rule:nonzero}
    .fil4 {fill:#4D5357;fill-rule:nonzero}
    .fil1 {fill:#2658A5;fill-rule:nonzero}
    .fil5 {fill:#2658A5;fill-rule:nonzero}
    .fil2 {fill:#2A3F72;fill-opacity:0.501961}
    .fil0 {fill:url(#id1)}
   ]]>
  </style>
    <clipPath id="id0" style="clip-rule:nonzero">
     <path d="M197.62 60.76l-12.69 -53.79 -8.77 0 -12.46 53.79 9.74 0 1.74 -8.69 10.8 0 1.82 8.69 9.82 0zm-13.3 -16.85l-7.55 0c0.07,0 2.72,-13.37 2.72,-13.37l0.98 -5.89 1.06 5.89 2.79 13.37zm48.65 16.85l-11.93 -33.16 10.95 -20.63 -10.27 0 -10.35 20.93 0 -20.93 -9.9 0 0 53.79 9.9 0 0 -16.85 2.94 -5.43 8.24 22.28 10.42 0zm35.13 0l-11.93 -33.16 10.95 -20.63 -10.27 0 -10.35 20.93 0 -20.93 -9.9 0 0 53.79 9.9 0 0 -16.85 2.94 -5.43 8.24 22.28 10.42 0zm33.62 -53.79l-10.43 0 -4.23 15.34c-0.37,1.36 -1.81,7.25 -1.88,8.69l-0.23 0c-0.15,-1.36 -0.83,-5.14 -1.21,-6.5l-4.91 -17.53 -10.65 0 11.56 37.02 -1.14 3.85c-0.75,2.65 -2.19,3.78 -5.06,3.78l-1.74 0 0 9.14 2.72 0c3.93,0 7.48,-0.68 9.67,-2.72 1.74,-1.58 2.95,-3.93 3.86,-6.95l13.67 -44.12z"/>
    </clipPath>
  <linearGradient id="id1" gradientUnits="userSpaceOnUse" x1="48.23" y1="60.03" x2="73.38" y2="73.38">
   <stop offset="0" style="stop-opacity:1; stop-color:#2658A5"/>
   <stop offset="1" style="stop-opacity:1; stop-color:#2A3F72"/>
  </linearGradient>
 </defs>
 <g id="Слой_x0020_1">
  <metadata id="CorelCorpID_0Corel-Layer"/>
  <path class="fil0" d="M73.38 0c2.46,0 4.9,0.12 7.3,0.36l0.18 0.45 0.56 1.37 0.57 1.36 0.56 1.37 0.56 1.37 0.56 1.37 0.56 1.37 0.57 1.36 0.41 1.01 31.07 75.59c-12.1,-18.88 -24.19,-37.77 -36.28,-56.66 -9.89,14.89 -19.79,29.78 -29.68,44.67 12.33,-0.86 22.35,0.36 28.48,5.1 -21.23,3.24 -39.92,14.75 -57.16,31.01 11.56,15.91 30.3,26.25 51.46,26.25 35.11,0 63.56,-28.45 63.56,-63.56 0,-27.84 -17.9,-51.49 -42.81,-60.09l0.01 0 -12.63 -13.28c36.84,3.91 65.53,35.09 65.53,72.96 0,40.53 -32.85,73.38 -73.38,73.38 -25.03,0 -47.14,-12.54 -60.38,-31.68l5.46 -8.81 55.59 -96.03c-0.32,0 -0.63,-0.01 -0.95,-0.01 -35.1,0 -63.56,28.46 -63.56,63.56 0,9.12 1.93,17.79 5.39,25.63l-4.09 12.36c-6.87,-11.17 -10.84,-24.32 -10.84,-38.4 0,-40.53 32.85,-73.38 73.38,-73.38z"/>
  <g id="_2150173251616">
   <path class="fil1" d="M197.62 60.76l-12.69 -53.79 -8.77 0 -12.46 53.79 9.74 0 1.74 -8.69 10.8 0 1.82 8.69 9.82 0zm-13.3 -16.85l-7.55 0c0.07,0 2.72,-13.37 2.72,-13.37l0.98 -5.89 1.06 5.89 2.79 13.37zm48.65 16.85l-11.93 -33.16 10.95 -20.63 -10.27 0 -10.35 20.93 0 -20.93 -9.9 0 0 53.79 9.9 0 0 -16.85 2.94 -5.43 8.24 22.28 10.42 0zm35.13 0l-11.93 -33.16 10.95 -20.63 -10.27 0 -10.35 20.93 0 -20.93 -9.9 0 0 53.79 9.9 0 0 -16.85 2.94 -5.43 8.24 22.28 10.42 0zm33.62 -53.79l-10.43 0 -4.23 15.34c-0.37,1.36 -1.81,7.25 -1.88,8.69l-0.23 0c-0.15,-1.36 -0.83,-5.14 -1.21,-6.5l-4.91 -17.53 -10.65 0 11.56 37.02 -1.14 3.85c-0.75,2.65 -2.19,3.78 -5.06,3.78l-1.74 0 0 9.14 2.72 0c3.93,0 7.48,-0.68 9.67,-2.72 1.74,-1.58 2.95,-3.93 3.86,-6.95l13.67 -44.12z"/>
   <g style="clip-path:url(#id0)">
    <g>
     <path id="1" class="fil2" d="M232.71 -21.58c58.12,0 105.24,14.17 105.24,31.64 0,17.47 -47.12,31.63 -105.24,31.63 -58.12,0 -105.24,-14.16 -105.24,-31.63 0,-17.47 47.12,-31.64 105.24,-31.64z"/>
    </g>
   </g>
   <path class="fil3" d="M197.62 60.76l-12.69 -53.79 -8.77 0 -12.46 53.79 9.74 0 1.74 -8.69 10.8 0 1.82 8.69 9.82 0zm-13.3 -16.85l-7.55 0c0.07,0 2.72,-13.37 2.72,-13.37l0.98 -5.89 1.06 5.89 2.79 13.37zm48.65 16.85l-11.93 -33.16 10.95 -20.63 -10.27 0 -10.35 20.93 0 -20.93 -9.9 0 0 53.79 9.9 0 0 -16.85 2.94 -5.43 8.24 22.28 10.42 0zm35.13 0l-11.93 -33.16 10.95 -20.63 -10.27 0 -10.35 20.93 0 -20.93 -9.9 0 0 53.79 9.9 0 0 -16.85 2.94 -5.43 8.24 22.28 10.42 0zm33.62 -53.79l-10.43 0 -4.23 15.34c-0.37,1.36 -1.81,7.25 -1.88,8.69l-0.23 0c-0.15,-1.36 -0.83,-5.14 -1.21,-6.5l-4.91 -17.53 -10.65 0 11.56 37.02 -1.14 3.85c-0.75,2.65 -2.19,3.78 -5.06,3.78l-1.74 0 0 9.14 2.72 0c3.93,0 7.48,-0.68 9.67,-2.72 1.74,-1.58 2.95,-3.93 3.86,-6.95l13.67 -44.12z"/>
   <path class="fil4" d="M172.47 67.79c-5.98,0 -8.72,3.91 -8.72,9.84l0 2.91 4.03 0 0 -3.13c0,-3.53 1.45,-5.65 4.58,-5.65 3.13,0 4.59,2.12 4.59,5.65l0 7.71 -6.82 0 0 3.91 6.82 0 0 9.06c0,3.52 -1.46,5.64 -4.59,5.64 -3.13,0 -4.58,-2.12 -4.58,-5.64l0 -4.47 -4.08 0 0 4.24c0,5.93 2.79,9.84 8.77,9.84 5.99,0 8.78,-3.91 8.78,-9.84l0 -20.23c0,-5.93 -2.79,-9.84 -8.78,-9.84zm29.1 21.91l0 17.61 4.36 0 0 -39.13 -4.36 0 0 17.61 -9.62 0 0 -17.61 -4.36 0 0 39.13 4.36 0 0 -17.61 9.62 0zm15.34 -4.19l0 -13.36 11.74 0 0 -3.97 -16.1 0 0 39.13 16.1 0 0 -3.97 -11.74 0 0 -13.92 9.56 0 0 -3.91 -9.56 0zm17.92 -17.33l0 39.13 4.36 0 0 -15.43 3.86 0c6.2,0 9.11,-3.24 9.11,-9.44l0 -4.7c0,-5.92 -2.63,-9.56 -8.78,-9.56l-8.55 0zm4.36 19.79l0 -15.82 4.19 0c3.19,0 4.47,1.79 4.47,5.37l0 5.2c0,3.74 -1.56,5.25 -4.8,5.25l-3.86 0zm34.18 -15.82l0 -3.97 -15.6 0 0 39.13 4.31 0 0 -35.16 11.29 0zm6.07 25.71c0,5.93 2.96,9.84 8.94,9.84 6.04,0 9,-3.91 9,-9.84l0 -20.23c0,-5.98 -2.96,-9.84 -9,-9.84 -5.98,0 -8.94,3.86 -8.94,9.84l0 20.23zm4.3 -20.45c0,-3.53 1.51,-5.65 4.64,-5.65 3.18,0 4.64,2.12 4.64,5.65l0 20.68c0,3.58 -1.46,5.64 -4.64,5.64 -3.13,0 -4.64,-2.06 -4.64,-5.64l0 -20.68z"/>
  </g>
  <g id="_2150173265344">
   <path class="fil5" d="M169.03 139.57l-2.76 0 0 -13.4 -2.89 0 0 -1.96c1.16,0 1.99,-0.15 2.51,-0.45 0.54,-0.33 0.96,-0.92 1.28,-1.75l1.86 0 0 17.56zm1.93 -4.17l0 -1.38 2.61 0 0 1.59c0,1.13 0.48,1.7 1.43,1.7 0.95,0 1.43,-0.57 1.43,-1.7l0 -3.94c0,-1.16 -0.48,-1.73 -1.43,-1.73 -0.95,0 -1.43,0.57 -1.43,1.73l0 0.15 -2.61 0 0.5 -9.81 7.28 0 0 2.51 -4.82 0 -0.23 4.19c0.54,-0.86 1.35,-1.28 2.44,-1.28 2.04,0 3.06,1.33 3.06,4.01l0 3.96c0,1.43 -0.35,2.52 -1.05,3.28 -0.71,0.76 -1.73,1.14 -3.07,1.14 -1.33,0 -2.35,-0.38 -3.06,-1.14 -0.7,-0.76 -1.05,-1.85 -1.05,-3.28z"/>
   <path class="fil6" d="M184.93 139.59c-0.26,0 -0.52,-0.02 -0.77,-0.07l0 -2.43c0.13,0.03 0.27,0.05 0.42,0.05 0.56,0 0.94,-0.14 1.17,-0.42 0.23,-0.27 0.35,-0.76 0.36,-1.47l0.43 -13.24 7.78 0 0 17.56 -2.76 0 0 -15.05 -2.41 0 -0.3 10.58c-0.03,1.58 -0.35,2.72 -0.95,3.43 -0.61,0.71 -1.59,1.06 -2.97,1.06zm18.97 -0.02l-7.52 0 0 -17.56 7.52 0 0 2.51 -4.76 0 0 4.64 3.79 0 0 2.51 -3.79 0 0 5.39 4.76 0 0 2.51zm6.4 0l-2.76 0 0 -15.05 -2.88 0 0 -2.51 8.53 0 0 2.51 -2.89 0 0 15.05zm10.99 0l-2.76 0 0 -17.56 2.76 0 0 7.15 2.96 0 0 -7.15 2.76 0 0 17.56 -2.76 0 0 -7.9 -2.96 0 0 7.9zm16.49 0l-2.76 0 -0.48 -3.44 -3.19 0 -0.47 3.44 -2.56 0 2.86 -17.56 3.74 0 2.86 17.56zm-4.85 -14.68l-1.23 8.86 2.49 0 -1.26 -8.86zm12.93 14.68l-2.76 0 0 -17.56 4.06 0c2.74,0 4.11,1.44 4.11,4.34l0 1.73c0,2.89 -1.37,4.34 -4.11,4.34l-1.3 0 0 7.15zm0 -15.05l0 5.39 1.3 0c0.47,0 0.81,-0.13 1.03,-0.39 0.22,-0.26 0.32,-0.68 0.32,-1.27l0 -2.08c0,-0.58 -0.1,-1.01 -0.32,-1.27 -0.22,-0.26 -0.56,-0.38 -1.03,-0.38l-1.3 0zm10.96 15.05l-4.06 0 0 -17.56 2.76 0 0 6.65 1.3 0c2.74,0 4.11,1.44 4.11,4.34l0 2.23c0,2.89 -1.37,4.34 -4.11,4.34zm8.38 0l-2.76 0 0 -17.56 2.76 0 0 17.56zm-9.68 -8.41l0 5.9 1.3 0c0.47,0 0.81,-0.13 1.03,-0.39 0.22,-0.26 0.32,-0.68 0.32,-1.27l0 -2.58c0,-0.58 -0.1,-1.01 -0.32,-1.27 -0.22,-0.26 -0.56,-0.39 -1.03,-0.39l-1.3 0zm14.5 8.41l-2.76 0 0 -17.56 2.76 0 0 7.15 2.96 0 0 -7.15 2.76 0 0 17.56 -2.76 0 0 -7.9 -2.96 0 0 7.9zm16.86 0l-2.89 0 -2.31 -7.73 -1.12 2.21 0 5.52 -2.76 0 0 -17.56 2.76 0 0 7.55 3.46 -7.55 2.81 0 -3.29 6.44 3.34 11.12zm8.83 0l-7.53 0 0 -17.56 7.53 0 0 2.51 -4.77 0 0 4.64 3.79 0 0 2.51 -3.79 0 0 5.39 4.77 0 0 2.51z"/>
  </g>
 </g>
</svg>
