<?xml version="1.0" encoding="UTF-8"?>
<!DOCTYPE svg PUBLIC "-//W3C//DTD SVG 1.1//EN" "http://www.w3.org/Graphics/SVG/1.1/DTD/svg11.dtd">
<!-- Creator: CorelDRAW 2020 (64-Bit) -->
<svg xmlns="http://www.w3.org/2000/svg" xml:space="preserve" width="260.478mm" height="45.8021mm" version="1.1" style="shape-rendering:geometricPrecision; text-rendering:geometricPrecision; image-rendering:optimizeQuality; fill-rule:evenodd; clip-rule:evenodd"
viewBox="0 0 62174.72 10932.72"
 xmlns:xlink="http://www.w3.org/1999/xlink"
 xmlns:xodm="http://www.corel.com/coreldraw/odm/2003">
 <defs>
  <style type="text/css">
   <![CDATA[
    .fil3 {fill:none;fill-rule:nonzero}
    .fil1 {fill:#2658A5;fill-rule:nonzero}
    .fil4 {fill:#4D5357;fill-rule:nonzero}
    .fil2 {fill:#2A3F72;fill-opacity:0.501961}
    .fil0 {fill:url(#id1)}
   ]]>
  </style>
   <clipPath id="id0" style="clip-rule:nonzero">
    <path d="M19194.21 9439.66l-1897.05 -8041.15 -1311.05 0 -1862.65 8041.15 1456.06 0 260.11 -1299.1 1614.51 0 272.06 1299.1 1468.02 0zm-1988.23 -2518.92l-1128.67 0c10.45,0 406.62,-1998.71 406.62,-1998.71l146.51 -880.52 158.45 880.52 417.1 1998.71zm7272.77 2518.92l-1783.43 -4957.14 1636.94 -3084.01 -1535.28 0 -1547.24 3128.86 0 -3128.86 -1479.98 0 0 8041.15 1479.98 0 0 -2518.92 439.51 -811.75 1231.81 3330.67 1557.7 0 0 0zm5251.64 0l-1783.43 -4957.14 1636.92 -3084.01 -1535.26 0 -1547.24 3128.86 0 -3128.86 -1479.98 0 0 8041.15 1479.98 0 0 -2518.92 439.51 -811.75 1231.81 3330.67 1557.7 0 0 0zm5025.88 -8041.15l-1559.2 0 -632.35 2293.19c-55.31,203.32 -270.58,1083.82 -281.04,1299.1l-34.37 0c-22.41,-203.3 -124.1,-768.38 -180.88,-971.7l-734.01 -2620.58 -1592.09 0 1728.15 5534.18 -170.43 575.54c-112.11,396.16 -327.39,565.09 -756.42,565.09l-260.13 0 0 1366.34 406.64 0c587.5,0 1118.19,-101.66 1445.56,-406.62 260.13,-236.21 441.01,-587.5 577.04,-1038.97l2043.56 -6595.56 -0.02 0z"/>
   </clipPath>
  <linearGradient id="id1" gradientUnits="userSpaceOnUse" x1="3575.72" y1="4469.63" x2="5438.06" y2="5438.06">
   <stop offset="0" style="stop-opacity:1; stop-color:#2658A5"/>
   <stop offset="1" style="stop-opacity:1; stop-color:#2A3F72"/>
  </linearGradient>
 </defs>
 <g id="Слой_x0020_1">
  <metadata id="CorelCorpID_0Corel-Layer"/>
  <path class="fil0" d="M5466.37 0c183.25,0 365.01,8.95 543.79,26.83l13.41 33.51 41.72 102.07 42.44 101.3 41.72 102.04 41.72 102.07 41.72 102.04 41.72 102.07 42.44 101.3 30.55 75.24 2314.53 5631c-901.38,-1406.44 -1802,-2813.64 -2702.64,-4220.81 -736.76,1109.21 -1474.23,2218.43 -2210.98,3327.64 918.5,-64.07 1664.94,26.83 2121.59,379.93 -1581.52,241.34 -2973.8,1098.78 -4258.08,2310.04 861.14,1185.21 2257.17,1955.48 3833.46,1955.48 2615.47,0 4734.84,-2119.35 4734.84,-4734.84 0,-2073.9 -1333.44,-3835.7 -3189.1,-4476.34l0.76 0 -940.86 -989.29c2744.34,291.28 4881.59,2613.99 4881.59,5435.1 0,3019.23 -2447.12,5466.37 -5466.37,5466.37 -1864.59,0 -3511.65,-934.16 -4497.94,-2359.97l406.74 -656.29 4141.11 -7153.66c-23.82,0 -46.93,-0.76 -70.77,-0.76 -2614.73,0 -4734.84,2120.11 -4734.84,4734.84 0,679.4 143.79,1325.26 401.53,1909.3l-304.69 920.74c-511.76,-832.09 -807.5,-1811.69 -807.5,-2860.57 0,-3019.23 2447.12,-5466.37 5466.37,-5466.37l0 0z"/>
  <path class="fil1" d="M19194.21 9439.66l-1897.05 -8041.15 -1311.05 0 -1862.65 8041.15 1456.06 0 260.11 -1299.1 1614.51 0 272.06 1299.1 1468.02 0zm-1988.23 -2518.92l-1128.67 0c10.45,0 406.62,-1998.71 406.62,-1998.71l146.51 -880.52 158.45 880.52 417.1 1998.71zm7272.77 2518.92l-1783.43 -4957.14 1636.94 -3084.01 -1535.28 0 -1547.24 3128.86 0 -3128.86 -1479.98 0 0 8041.15 1479.98 0 0 -2518.92 439.51 -811.75 1231.81 3330.67 1557.7 0 0 0zm5251.64 0l-1783.43 -4957.14 1636.92 -3084.01 -1535.26 0 -1547.24 3128.86 0 -3128.86 -1479.98 0 0 8041.15 1479.98 0 0 -2518.92 439.51 -811.75 1231.81 3330.67 1557.7 0 0 0zm5025.88 -8041.15l-1559.2 0 -632.35 2293.19c-55.31,203.32 -270.58,1083.82 -281.04,1299.1l-34.37 0c-22.41,-203.3 -124.1,-768.38 -180.88,-971.7l-734.01 -2620.58 -1592.09 0 1728.15 5534.18 -170.43 575.54c-112.11,396.16 -327.39,565.09 -756.42,565.09l-260.13 0 0 1366.34 406.64 0c587.5,0 1118.19,-101.66 1445.56,-406.62 260.13,-236.21 441.01,-587.5 577.04,-1038.97l2043.56 -6595.56 -0.02 0z"/>
  <g>
  </g>
  <g style="clip-path:url(#id0)">
   <g>
    <path id="_1" class="fil2" d="M24439.86 -2869.47c8688.46,0 15732.49,2118.3 15732.49,4729.93 0,2611.61 -7044.05,4728.42 -15732.49,4728.42 -8688.44,0 -15732.49,-2116.82 -15732.49,-4728.42 0,-2611.63 7044.05,-4729.93 15732.49,-4729.93z"/>
   </g>
  </g>
  <path class="fil3" d="M19194.21 9439.66l-1897.05 -8041.15 -1311.05 0 -1862.65 8041.15 1456.06 0 260.11 -1299.1 1614.51 0 272.06 1299.1 1468.02 0zm-1988.23 -2518.92l-1128.67 0c10.45,0 406.62,-1998.71 406.62,-1998.71l146.51 -880.52 158.45 880.52 417.1 1998.71zm7272.77 2518.92l-1783.43 -4957.14 1636.94 -3084.01 -1535.28 0 -1547.24 3128.86 0 -3128.86 -1479.98 0 0 8041.15 1479.98 0 0 -2518.92 439.51 -811.75 1231.81 3330.67 1557.7 0 0 0zm5251.64 0l-1783.43 -4957.14 1636.92 -3084.01 -1535.26 0 -1547.24 3128.86 0 -3128.86 -1479.98 0 0 8041.15 1479.98 0 0 -2518.92 439.51 -811.75 1231.81 3330.67 1557.7 0 0 0zm5025.88 -8041.15l-1559.2 0 -632.35 2293.19c-55.31,203.32 -270.58,1083.82 -281.04,1299.1l-34.37 0c-22.41,-203.3 -124.1,-768.38 -180.88,-971.7l-734.01 -2620.58 -1592.09 0 1728.15 5534.18 -170.43 575.54c-112.11,396.16 -327.39,565.09 -756.42,565.09l-260.13 0 0 1366.34 406.64 0c587.5,0 1118.19,-101.66 1445.56,-406.62 260.13,-236.21 441.01,-587.5 577.04,-1038.97l2043.56 -6595.56 -0.02 0z"/>
  <path class="fil3" d="M19194.21 9439.66l-1897.05 -8041.15 -1311.05 0 -1862.65 8041.15 1456.06 0 260.11 -1299.1 1614.51 0 272.06 1299.1 1468.02 0zm-1988.23 -2518.92l-1128.67 0c10.45,0 406.62,-1998.71 406.62,-1998.71l146.51 -880.52 158.45 880.52 417.1 1998.71zm7272.77 2518.92l-1783.43 -4957.14 1636.94 -3084.01 -1535.28 0 -1547.24 3128.86 0 -3128.86 -1479.98 0 0 8041.15 1479.98 0 0 -2518.92 439.51 -811.75 1231.81 3330.67 1557.7 0 0 0zm5251.64 0l-1783.43 -4957.14 1636.92 -3084.01 -1535.26 0 -1547.24 3128.86 0 -3128.86 -1479.98 0 0 8041.15 1479.98 0 0 -2518.92 439.51 -811.75 1231.81 3330.67 1557.7 0 0 0zm5025.88 -8041.15l-1559.2 0 -632.35 2293.19c-55.31,203.32 -270.58,1083.82 -281.04,1299.1l-34.37 0c-22.41,-203.3 -124.1,-768.38 -180.88,-971.7l-734.01 -2620.58 -1592.09 0 1728.15 5534.18 -170.43 575.54c-112.11,396.16 -327.39,565.09 -756.42,565.09l-260.13 0 0 1366.34 406.64 0c587.5,0 1118.19,-101.66 1445.56,-406.62 260.13,-236.21 441.01,-587.5 577.04,-1038.97l2043.56 -6595.56 -0.02 0z"/>
  <path class="fil4" d="M39102.75 1483.58c-1104.56,0 -1610.66,771.7 -1610.66,1942.07l0 574.35 744.39 0 0 -617.74c0,-696.73 267.82,-1115.11 845.96,-1115.11 578.14,0 847.82,418.41 847.82,1115.11l0 1521.7 -1259.71 0 0 771.7 1259.71 0 0 1788.13c0,694.72 -269.68,1113.13 -847.82,1113.13 -578.12,0 -845.96,-418.43 -845.96,-1113.13l0 -882.24 -753.61 0 0 836.82c0,1170.39 515.34,1942.09 1619.9,1942.09 1106.4,0 1621.74,-771.7 1621.74,-1942.09l0 -3992.72c0,-1170.37 -515.32,-1942.07 -1621.74,-1942.07l-0.02 0zm5375.02 4324.29l0 3475.61 805.33 0 0 -7722.94 -805.33 0 0 3475.61 -1776.89 0 0 -3475.61 -805.33 0 0 7722.94 805.33 0 0 -3475.61 1776.89 0zm2833.43 -826.96l0 -2636.81 2168.49 0 0 -783.56 -2973.83 0 0 7722.94 2973.83 0 0 -783.54 -2168.49 0 0 -2747.35 1765.82 0 0 -771.7 -1765.82 0 0 0.02zm3309.98 -3420.35l0 7722.94 805.33 0 0 -3045.34 712.98 0c1145.19,0 1682.7,-639.49 1682.7,-1863.16l0 -927.62c0,-1168.41 -485.79,-1886.83 -1621.76,-1886.83l-1579.25 0zm805.33 3905.88l0 -3122.34 773.92 0c589.22,0 825.67,353.29 825.67,1059.88l0 1026.29c0,738.14 -288.15,1036.17 -886.61,1036.17l-712.98 0zm6313.36 -3122.34l0 -783.56 -2881.45 0 0 7722.94 796.09 0 0 -6939.4 2085.38 0 -0.02 0.02zm1121.17 5074.29c0,1170.39 546.73,1942.09 1651.29,1942.09 1115.64,0 1662.39,-771.7 1662.39,-1942.09l0 -3992.72c0,-1180.25 -546.75,-1942.07 -1662.39,-1942.07 -1104.56,0 -1651.29,761.84 -1651.29,1942.07l0 3992.72zm794.23 -4036.14c0,-696.73 278.91,-1115.11 857.06,-1115.11 587.38,0 857.06,418.41 857.06,1115.11l0 4081.54c0,706.56 -269.68,1113.13 -857.06,1113.13 -578.14,0 -857.06,-406.57 -857.06,-1113.13l0 -4081.54z"/>
 </g>
</svg>
