<?xml version="1.0" encoding="UTF-8"?>
<!DOCTYPE svg PUBLIC "-//W3C//DTD SVG 1.1//EN" "http://www.w3.org/Graphics/SVG/1.1/DTD/svg11.dtd">
<!-- Creator: CorelDRAW 2020 (64-Bit) -->
<svg xmlns="http://www.w3.org/2000/svg" xml:space="preserve" width="188.964mm" height="91.9139mm" version="1.1" style="shape-rendering:geometricPrecision; text-rendering:geometricPrecision; image-rendering:optimizeQuality; fill-rule:evenodd; clip-rule:evenodd"
viewBox="0 0 18233.46 8868.95"
 xmlns:xlink="http://www.w3.org/1999/xlink"
 xmlns:xodm="http://www.corel.com/coreldraw/odm/2003">
 <defs>
  <style type="text/css">
   <![CDATA[
    .fil3 {fill:none;fill-rule:nonzero}
    .fil1 {fill:#2658A5;fill-rule:nonzero}
    .fil4 {fill:#4D5357;fill-rule:nonzero}
    .fil2 {fill:#2A3F72;fill-opacity:0.501961}
    .fil0 {fill:url(#id1)}
   ]]>
  </style>
   <clipPath id="id0" style="clip-rule:nonzero">
    <path d="M11942.51 4522.83l-766.88 -3250.62 -529.99 0 -752.98 3250.62 588.61 0 105.15 -525.16 652.66 0 109.98 525.16 593.44 0zm-803.74 -1018.27l-456.26 0c4.23,0 164.37,-807.98 164.37,-807.98l59.23 -355.95 64.05 355.95 168.61 807.98zm2940 1018.27l-720.95 -2003.92 661.73 -1246.71 -620.64 0 -625.47 1264.84 0 -1264.84 -598.28 0 0 3250.62 598.28 0 0 -1018.27 177.67 -328.15 497.96 1346.42 629.7 0 0 0zm2122.97 0l-720.95 -2003.92 661.72 -1246.71 -620.63 0 -625.47 1264.84 0 -1264.84 -598.28 0 0 3250.62 598.28 0 0 -1018.27 177.67 -328.15 497.96 1346.42 629.7 0 0 0zm2031.71 -3250.62l-630.3 0 -255.63 927.02c-22.36,82.19 -109.38,438.13 -113.61,525.16l-13.89 0c-9.06,-82.18 -50.17,-310.62 -73.12,-392.81l-296.72 -1059.37 -643.6 0 698.6 2237.19 -68.9 232.66c-45.32,160.15 -132.35,228.44 -305.78,228.44l-105.16 0 0 552.34 164.38 0c237.5,0 452.03,-41.1 584.37,-164.37 105.16,-95.49 178.28,-237.5 233.27,-420l826.11 -2666.25 -0.01 0z"/>
   </clipPath>
  <linearGradient id="id1" gradientUnits="userSpaceOnUse" x1="2900.72" y1="3625.91" x2="4411.52" y2="4411.52">
   <stop offset="0" style="stop-opacity:1; stop-color:#2658A5"/>
   <stop offset="1" style="stop-opacity:1; stop-color:#2A3F72"/>
  </linearGradient>
 </defs>
 <g id="Слой_x0020_1">
  <metadata id="CorelCorpID_0Corel-Layer"/>
  <path class="fil0" d="M4434.47 0c148.67,0 296.11,7.26 441.15,21.76l10.87 27.19 33.85 82.79 34.44 82.18 33.85 82.79 33.84 82.79 33.85 82.79 33.84 82.79 34.45 82.18 24.77 61.03 1877.62 4568.04c-731.24,-1140.95 -1461.84,-2282.51 -2192.47,-3424.06 -597.67,899.84 -1195.94,1799.65 -1793.61,2699.49 745.13,-51.97 1350.65,21.76 1721.1,308.2 -1282.97,195.8 -2412.43,891.36 -3454.28,1873.99 698.59,961.47 1831.08,1586.34 3109.81,1586.34 2121.76,0 3841.05,-1719.28 3841.05,-3841.05 0,-1682.42 -1081.72,-3111.63 -2587.08,-3631.34l0.61 0 -763.25 -802.53c2226.31,236.28 3960.1,2120.55 3960.1,4409.09 0,2449.29 -1985.19,4434.48 -4434.48,4434.48 -1512.61,0 -2848.75,-757.81 -3648.87,-1914.48l329.96 -532.39 3359.41 -5803.27c-19.34,0 -38.08,-0.6 -57.41,-0.6 -2121.15,0 -3841.05,1719.88 -3841.05,3841.04 0,551.14 116.63,1075.08 325.73,1548.87l-247.16 746.94c-415.17,-675.02 -655.08,-1469.71 -655.08,-2320.57 0,-2449.3 1985.19,-4434.48 4434.48,-4434.48l-0.01 -0.01z"/>
  <path class="fil1" d="M11942.51 4522.83l-766.88 -3250.62 -529.99 0 -752.98 3250.62 588.61 0 105.15 -525.16 652.66 0 109.98 525.16 593.44 0zm-803.74 -1018.27l-456.26 0c4.23,0 164.37,-807.98 164.37,-807.98l59.23 -355.95 64.05 355.95 168.61 807.98zm2940 1018.27l-720.95 -2003.92 661.73 -1246.71 -620.64 0 -625.47 1264.84 0 -1264.84 -598.28 0 0 3250.62 598.28 0 0 -1018.27 177.67 -328.15 497.96 1346.42 629.7 0 0 0zm2122.97 0l-720.95 -2003.92 661.72 -1246.71 -620.63 0 -625.47 1264.84 0 -1264.84 -598.28 0 0 3250.62 598.28 0 0 -1018.27 177.67 -328.15 497.96 1346.42 629.7 0 0 0zm2031.71 -3250.62l-630.3 0 -255.63 927.02c-22.36,82.19 -109.38,438.13 -113.61,525.16l-13.89 0c-9.06,-82.18 -50.17,-310.62 -73.12,-392.81l-296.72 -1059.37 -643.6 0 698.6 2237.19 -68.9 232.66c-45.32,160.15 -132.35,228.44 -305.78,228.44l-105.16 0 0 552.34 164.38 0c237.5,0 452.03,-41.1 584.37,-164.37 105.16,-95.49 178.28,-237.5 233.27,-420l826.11 -2666.25 -0.01 0z"/>
  <g>
  </g>
  <g style="clip-path:url(#id0)">
   <g>
    <path id="_1" class="fil2" d="M14063.06 -453.12c3512.3,0 6359.83,856.32 6359.83,1912.07 0,1055.74 -2847.55,1911.46 -6359.83,1911.46 -3512.29,0 -6359.83,-855.72 -6359.83,-1911.46 0,-1055.75 2847.55,-1912.07 6359.83,-1912.07z"/>
   </g>
  </g>
  <path class="fil3" d="M11942.51 4522.83l-766.88 -3250.62 -529.99 0 -752.98 3250.62 588.61 0 105.15 -525.16 652.66 0 109.98 525.16 593.44 0zm-803.74 -1018.27l-456.26 0c4.23,0 164.37,-807.98 164.37,-807.98l59.23 -355.95 64.05 355.95 168.61 807.98zm2940 1018.27l-720.95 -2003.92 661.73 -1246.71 -620.64 0 -625.47 1264.84 0 -1264.84 -598.28 0 0 3250.62 598.28 0 0 -1018.27 177.67 -328.15 497.96 1346.42 629.7 0 0 0zm2122.97 0l-720.95 -2003.92 661.72 -1246.71 -620.63 0 -625.47 1264.84 0 -1264.84 -598.28 0 0 3250.62 598.28 0 0 -1018.27 177.67 -328.15 497.96 1346.42 629.7 0 0 0zm2031.71 -3250.62l-630.3 0 -255.63 927.02c-22.36,82.19 -109.38,438.13 -113.61,525.16l-13.89 0c-9.06,-82.18 -50.17,-310.62 -73.12,-392.81l-296.72 -1059.37 -643.6 0 698.6 2237.19 -68.9 232.66c-45.32,160.15 -132.35,228.44 -305.78,228.44l-105.16 0 0 552.34 164.38 0c237.5,0 452.03,-41.1 584.37,-164.37 105.16,-95.49 178.28,-237.5 233.27,-420l826.11 -2666.25 -0.01 0z"/>
  <path class="fil3" d="M11942.51 4522.83l-766.88 -3250.62 -529.99 0 -752.98 3250.62 588.61 0 105.15 -525.16 652.66 0 109.98 525.16 593.44 0zm-803.74 -1018.27l-456.26 0c4.23,0 164.37,-807.98 164.37,-807.98l59.23 -355.95 64.05 355.95 168.61 807.98zm2940 1018.27l-720.95 -2003.92 661.73 -1246.71 -620.64 0 -625.47 1264.84 0 -1264.84 -598.28 0 0 3250.62 598.28 0 0 -1018.27 177.67 -328.15 497.96 1346.42 629.7 0 0 0zm2122.97 0l-720.95 -2003.92 661.72 -1246.71 -620.63 0 -625.47 1264.84 0 -1264.84 -598.28 0 0 3250.62 598.28 0 0 -1018.27 177.67 -328.15 497.96 1346.42 629.7 0 0 0zm2031.71 -3250.62l-630.3 0 -255.63 927.02c-22.36,82.19 -109.38,438.13 -113.61,525.16l-13.89 0c-9.06,-82.18 -50.17,-310.62 -73.12,-392.81l-296.72 -1059.37 -643.6 0 698.6 2237.19 -68.9 232.66c-45.32,160.15 -132.35,228.44 -305.78,228.44l-105.16 0 0 552.34 164.38 0c237.5,0 452.03,-41.1 584.37,-164.37 105.16,-95.49 178.28,-237.5 233.27,-420l826.11 -2666.25 -0.01 0z"/>
  <path class="fil4" d="M10422.66 4947.66c-361.39,0 -526.96,236.29 -526.96,594.65l0 175.86 243.54 0 0 -189.15c0,-213.32 87.62,-341.44 276.78,-341.44 189.15,0 277.39,128.12 277.39,341.44l0 465.93 -412.15 0 0 236.29 412.15 0 0 547.51c0,212.73 -88.23,340.84 -277.39,340.84 -189.14,0 -276.78,-128.12 -276.78,-340.84l0 -270.13 -246.56 0 0 256.23c0,358.35 168.6,594.64 529.99,594.64 361.98,0 530.59,-236.29 530.59,-594.64l0 -1222.53c0,-358.36 -168.6,-594.65 -530.59,-594.65l-0.01 0zm1758.57 1324.06l0 1064.2 263.48 0 0 -2364.69 -263.48 0 0 1064.19 -581.35 0 0 -1064.19 -263.48 0 0 2364.69 263.48 0 0 -1064.2 581.35 0zm927.02 -253.21l0 -807.37 709.47 0 0 -239.91 -972.95 0 0 2364.69 972.95 0 0 -239.92 -709.47 0 0 -841.22 577.73 0 0 -236.28 -577.73 0 0 0zm1082.94 -1047.28l0 2364.7 263.48 0 0 -932.46 233.27 0c374.67,0 550.53,-195.8 550.53,-570.48l0 -284.02c0,-357.75 -158.94,-577.74 -530.6,-577.74l-516.69 0zm263.48 1195.94l0 -956.03 253.2 0c192.77,0 270.13,108.18 270.13,324.52l0 314.25c0,226.01 -94.27,317.27 -290.06,317.27l-233.27 0zm2065.56 -956.03l0 -239.91 -942.73 0 0 2364.69 260.46 0 0 -2124.78 682.28 0 -0.01 0zm366.81 1553.7c0,358.36 178.88,594.65 540.27,594.65 365.01,0 543.89,-236.29 543.89,-594.65l0 -1222.52c0,-361.39 -178.88,-594.65 -543.89,-594.65 -361.39,0 -540.27,233.27 -540.27,594.65l0 1222.52zm259.86 -1235.83c0,-213.32 91.25,-341.44 280.41,-341.44 192.17,0 280.41,128.12 280.41,341.44l0 1249.73c0,216.35 -88.23,340.84 -280.41,340.84 -189.15,0 -280.41,-124.48 -280.41,-340.84l0 -1249.73z"/>
 </g>
</svg>
