<?xml version="1.0" encoding="UTF-8"?>
<!DOCTYPE svg PUBLIC "-//W3C//DTD SVG 1.1//EN" "http://www.w3.org/Graphics/SVG/1.1/DTD/svg11.dtd">
<!-- Creator: CorelDRAW 2020 (64-Bit) -->
<svg xmlns="http://www.w3.org/2000/svg" xml:space="preserve" width="131.786mm" height="63.6356mm" version="1.1" style="shape-rendering:geometricPrecision; text-rendering:geometricPrecision; image-rendering:optimizeQuality; fill-rule:evenodd; clip-rule:evenodd"
viewBox="0 0 8876.92 4286.42"
 xmlns:xlink="http://www.w3.org/1999/xlink"
 xmlns:xodm="http://www.corel.com/coreldraw/odm/2003">
 <defs>
  <style type="text/css">
   <![CDATA[
    .str0 {stroke:#FEFEFE;stroke-width:42.05;stroke-miterlimit:22.9256}
    .fil0 {fill:#FEFEFE}
    .fil1 {fill:#FEFEFE;fill-rule:nonzero}
   ]]>
  </style>
 </defs>
 <g id="Слой_x0020_1">
  <metadata id="CorelCorpID_0Corel-Layer"/>
  <path class="fil0 str0" d="M2143.19 21.03c71.15,0 141.72,3.49 211.14,10.41l5.19 13.01 16.21 39.62 16.47 39.34 16.21 39.63 16.21 39.63 16.18 39.59 16.21 39.63 16.47 39.34 11.86 29.21 898.55 2186.08c-349.94,-546.02 -699.56,-1092.33 -1049.21,-1638.61 -286.03,430.6 -572.35,861.24 -858.35,1291.87 356.58,-24.89 646.35,10.41 823.64,147.48 -613.97,93.7 -1154.48,426.57 -1653.06,896.83 334.31,460.11 876.26,759.15 1488.21,759.15 1015.41,0 1838.17,-822.77 1838.17,-1838.18 0,-805.12 -517.67,-1489.11 -1238.06,-1737.82l0.29 0 -365.28 -384.05c1065.42,113.08 1895.17,1014.81 1895.17,2110.02 0,1172.16 -950.04,2122.19 -2122.19,2122.19 -723.88,0 -1363.28,-362.66 -1746.21,-916.21l157.92 -254.8 1607.67 -2777.2c-9.26,0 -18.2,-0.29 -27.46,-0.29 -1015.1,0 -1838.18,823.06 -1838.18,1838.18 0,263.74 55.81,514.47 155.88,741.21l-118.3 357.47c-198.67,-323.03 -313.49,-703.34 -313.49,-1110.53 0,-1172.16 950.04,-2122.19 2122.17,-2122.19l0 0 -0.01 0z"/>
  <path class="fil1 str0" d="M5837.79 2145.84l-367.02 -1555.61 -253.61 0 -360.35 1555.61 281.67 0 50.32 -251.31 312.34 0 52.63 251.31 284.02 0 0 0zm-384.64 -487.3l-218.37 0c2.05,0 78.68,-386.65 78.68,-386.65l28.34 -170.36 30.65 170.36 80.7 386.65 0 0zm1406.97 487.3l-345.04 -959.01 316.69 -596.6 -297.03 0 -299.32 605.29 0 -605.29 -286.3 0 0 1555.61 286.3 0 0 -487.3 85.05 -157.03 238.3 644.33 301.34 0 0 0zm1015.97 0l-345.01 -959.01 316.66 -596.6 -296.99 0 -299.32 605.29 0 -605.29 -286.32 0 0 1555.61 286.32 0 0 -487.3 85.01 -157.03 238.3 644.33 301.35 0 0 0zm972.3 -1555.61l-301.63 0 -122.34 443.61c-10.7,39.34 -52.34,209.69 -54.37,251.34l-6.66 0c-4.32,-39.34 -23.99,-148.67 -34.98,-187.98l-142.01 -506.97 -308 0 334.34 1070.61 -32.99 111.35c-21.68,76.63 -63.33,109.33 -146.33,109.33l-50.32 0 0 264.32 78.68 0c113.65,0 216.32,-19.67 279.66,-78.68 50.32,-45.68 85.3,-113.65 111.63,-200.99l395.34 -1275.95 0 0 0 0z"/>
  <path class="fil1 str0" d="M5105.41 2547.71c-172.92,0 -252.18,113.08 -252.18,284.56l0 84.15 116.54 0 0 -90.5c0,-102.09 41.93,-163.41 132.46,-163.41 90.52,0 132.74,61.32 132.74,163.41l0 222.96 -197.23 0 0 113.08 197.23 0 0 262.01c0,101.8 -42.22,163.12 -132.74,163.12 -90.5,0 -132.46,-61.32 -132.46,-163.12l0 -129.26 -117.99 0 0 122.63c0,171.48 80.7,284.56 253.65,284.56 173.21,0 253.9,-113.08 253.9,-284.56l0 -585.07c0,-171.48 -80.69,-284.56 -253.9,-284.56l-0.03 0zm841.59 633.63l0 509.28 126.09 0 0 -1131.63 -126.09 0 0 509.28 -278.21 0 0 -509.28 -126.09 0 0 1131.63 126.09 0 0 -509.28 278.21 0zm443.65 -121.19l0 -386.36 339.53 0 0 -114.81 -465.62 0 0 1131.63 465.62 0 0 -114.81 -339.53 0 0 -402.58 276.48 0 0 -113.08 -276.48 0 0 0zm518.25 -501.17l0 1131.63 126.09 0 0 -446.23 111.64 0c179.3,0 263.45,-93.7 263.45,-273l0 -135.92c0,-171.22 -76.05,-276.48 -253.9,-276.48l-247.27 0zm126.09 572.32l0 -457.51 121.19 0c92.25,0 129.25,51.77 129.25,155.3l0 150.4c0,108.15 -45.1,151.81 -138.8,151.81l-111.64 0 0 0zm988.5 -457.51l0 -114.81 -451.17 0 0 1131.63 124.65 0 0 -1016.83 326.52 0 0 0zm175.55 743.55c0,171.48 85.59,284.56 258.54,284.56 174.68,0 260.28,-113.08 260.28,-284.56l0 -585.07c0,-172.92 -85.6,-284.56 -260.28,-284.56 -172.95,0 -258.54,111.63 -258.54,284.56l0 585.07zm124.36 -591.42c0,-102.09 43.66,-163.41 134.19,-163.41 91.97,0 134.19,61.32 134.19,163.41l0 598.05c0,103.56 -42.22,163.12 -134.19,163.12 -90.52,0 -134.19,-59.56 -134.19,-163.12l0 -598.05z"/>
 </g>
</svg>
