<?xml version="1.0" encoding="UTF-8"?>
<!DOCTYPE svg PUBLIC "-//W3C//DTD SVG 1.1//EN" "http://www.w3.org/Graphics/SVG/1.1/DTD/svg11.dtd">
<!-- Creator: CorelDRAW 2018 (64-Bit) -->
<svg xmlns="http://www.w3.org/2000/svg" xml:space="preserve" width="3028px" height="1474px" version="1.1" style="shape-rendering:geometricPrecision; text-rendering:geometricPrecision; image-rendering:optimizeQuality; fill-rule:evenodd; clip-rule:evenodd"
viewBox="0 0 3028.42 1474.07"
 xmlns:xlink="http://www.w3.org/1999/xlink">
 <defs>
  <style type="text/css">
   <![CDATA[
    .str0 {stroke:#FEFEFE;stroke-width:2.36;stroke-miterlimit:22.9256}
    .fil3 {fill:none;fill-rule:nonzero}
    .fil0 {fill:#FEFEFE}
    .fil4 {fill:#FEFEFE;fill-rule:nonzero}
    .fil1 {fill:#2658A5;fill-rule:nonzero}
    .fil2 {fill:#2A3F72;fill-opacity:0.501961}
   ]]>
  </style>
   <clipPath id="id0" style="clip-rule:nonzero">
    <path d="M1982.91 610.48l-127.26 -539.4 -87.94 0 -124.95 539.4 97.67 0 17.45 -87.14 108.3 0 18.25 87.14 98.48 0zm-133.37 -168.97l-75.72 0c0.71,0 27.28,-134.07 27.28,-134.07l9.83 -59.07 10.63 59.07 27.98 134.07zm487.86 168.97l-119.64 -332.53 109.81 -206.87 -102.99 0 -103.79 209.88 0 -209.88 -99.27 0 0 539.4 99.27 0 0 -168.97 29.49 -54.45 82.63 223.42 104.49 0 0 0zm352.28 0l-119.63 -332.53 109.8 -206.87 -102.98 0 -103.79 209.88 0 -209.88 -99.28 0 0 539.4 99.28 0 0 -168.97 29.48 -54.45 82.63 223.42 104.49 0 0 0zm337.14 -539.4l-104.59 0 -42.42 153.82c-3.71,13.64 -18.15,72.71 -18.85,87.15l-2.31 0c-1.5,-13.64 -8.32,-51.55 -12.13,-65.18l-49.24 -175.79 -106.8 0 115.93 371.23 -11.44 38.61c-7.52,26.57 -21.96,37.91 -50.74,37.91l-17.45 0 0 91.65 27.28 0c39.41,0 75.01,-6.82 96.97,-27.28 17.45,-15.84 29.58,-39.41 38.71,-69.69l137.08 -442.43 0 0z"/>
   </clipPath>
 </defs>
 <g id="Слой_x0020_1">
  <metadata id="CorelCorpID_0Corel-Layer"/>
  <path class="fil0 str0" d="M737.03 1.18c24.67,0 49.14,1.21 73.21,3.61l1.8 4.51 5.62 13.74 5.71 13.64 5.62 13.74 5.62 13.74 5.61 13.73 5.62 13.74 5.71 13.64 4.11 10.13 311.57 758.01c-121.34,-189.33 -242.57,-378.76 -363.81,-568.18 -99.18,149.31 -198.46,298.63 -297.63,447.95 123.64,-8.63 224.12,3.61 285.59,51.14 -212.89,32.49 -400.31,147.91 -573.19,310.97 115.92,159.54 303.84,263.23 516.03,263.23 352.09,0 637.38,-285.29 637.38,-637.38 0,-279.17 -179.5,-516.34 -429.29,-602.58l0.1 0 -126.66 -133.17c369.43,39.21 657.14,351.88 657.14,731.64 0,406.44 -329.42,735.86 -735.86,735.86 -251,0 -472.71,-125.75 -605.49,-317.69l54.76 -88.35 557.45 -962.98c-3.21,0 -6.31,-0.1 -9.52,-0.1 -351.98,0 -637.38,285.39 -637.38,637.38 0,91.45 19.35,178.39 54.05,257.01l-41.02 123.95c-68.89,-112.01 -108.7,-243.88 -108.7,-385.07 0,-406.44 329.42,-735.86 735.85,-735.86l0 0z"/>
  <path class="fil1" d="M1982.91 610.48l-127.26 -539.4 -87.94 0 -124.95 539.4 97.67 0 17.45 -87.14 108.3 0 18.25 87.14 98.48 0zm-133.37 -168.97l-75.72 0c0.71,0 27.28,-134.07 27.28,-134.07l9.83 -59.07 10.63 59.07 27.98 134.07zm487.86 168.97l-119.64 -332.53 109.81 -206.87 -102.99 0 -103.79 209.88 0 -209.88 -99.27 0 0 539.4 99.27 0 0 -168.97 29.49 -54.45 82.63 223.42 104.49 0 0 0zm352.28 0l-119.63 -332.53 109.8 -206.87 -102.98 0 -103.79 209.88 0 -209.88 -99.28 0 0 539.4 99.28 0 0 -168.97 29.48 -54.45 82.63 223.42 104.49 0 0 0zm337.14 -539.4l-104.59 0 -42.42 153.82c-3.71,13.64 -18.15,72.71 -18.85,87.15l-2.31 0c-1.5,-13.64 -8.32,-51.55 -12.13,-65.18l-49.24 -175.79 -106.8 0 115.93 371.23 -11.44 38.61c-7.52,26.57 -21.96,37.91 -50.74,37.91l-17.45 0 0 91.65 27.28 0c39.41,0 75.01,-6.82 96.97,-27.28 17.45,-15.84 29.58,-39.41 38.71,-69.69l137.08 -442.43 0 0z"/>
  <g>
  </g>
  <g style="clip-path:url(#id0)">
   <g>
    <path id="_1" class="fil2" d="M2334.79 -215.22c582.83,0 1055.34,142.09 1055.34,317.28 0,175.19 -472.52,317.19 -1055.34,317.19 -582.83,0 -1055.34,-142 -1055.34,-317.19 0,-175.19 472.51,-317.28 1055.34,-317.28z"/>
   </g>
  </g>
  <path class="fil3" d="M1982.91 610.48l-127.26 -539.4 -87.94 0 -124.95 539.4 97.67 0 17.45 -87.14 108.3 0 18.25 87.14 98.48 0zm-133.37 -168.97l-75.72 0c0.71,0 27.28,-134.07 27.28,-134.07l9.83 -59.07 10.63 59.07 27.98 134.07zm487.86 168.97l-119.64 -332.53 109.81 -206.87 -102.99 0 -103.79 209.88 0 -209.88 -99.27 0 0 539.4 99.27 0 0 -168.97 29.49 -54.45 82.63 223.42 104.49 0 0 0zm352.28 0l-119.63 -332.53 109.8 -206.87 -102.98 0 -103.79 209.88 0 -209.88 -99.28 0 0 539.4 99.28 0 0 -168.97 29.48 -54.45 82.63 223.42 104.49 0 0 0zm337.14 -539.4l-104.59 0 -42.42 153.82c-3.71,13.64 -18.15,72.71 -18.85,87.15l-2.31 0c-1.5,-13.64 -8.32,-51.55 -12.13,-65.18l-49.24 -175.79 -106.8 0 115.93 371.23 -11.44 38.61c-7.52,26.57 -21.96,37.91 -50.74,37.91l-17.45 0 0 91.65 27.28 0c39.41,0 75.01,-6.82 96.97,-27.28 17.45,-15.84 29.58,-39.41 38.71,-69.69l137.08 -442.43 0 0z"/>
  <path class="fil4 str0" d="M1982.91 610.48l-127.26 -539.4 -87.94 0 -124.95 539.4 97.67 0 17.45 -87.14 108.3 0 18.25 87.14 98.48 0zm-133.37 -168.97l-75.72 0c0.71,0 27.28,-134.07 27.28,-134.07l9.83 -59.07 10.63 59.07 27.98 134.07zm487.86 168.97l-119.64 -332.53 109.81 -206.87 -102.99 0 -103.79 209.88 0 -209.88 -99.27 0 0 539.4 99.27 0 0 -168.97 29.49 -54.45 82.63 223.42 104.49 0 0 0zm352.28 0l-119.63 -332.53 109.8 -206.87 -102.98 0 -103.79 209.88 0 -209.88 -99.28 0 0 539.4 99.28 0 0 -168.97 29.48 -54.45 82.63 223.42 104.49 0 0 0zm337.14 -539.4l-104.59 0 -42.42 153.82c-3.71,13.64 -18.15,72.71 -18.85,87.15l-2.31 0c-1.5,-13.64 -8.32,-51.55 -12.13,-65.18l-49.24 -175.79 -106.8 0 115.93 371.23 -11.44 38.61c-7.52,26.57 -21.96,37.91 -50.74,37.91l-17.45 0 0 91.65 27.28 0c39.41,0 75.01,-6.82 96.97,-27.28 17.45,-15.84 29.58,-39.41 38.71,-69.69l137.08 -442.43 0 0z"/>
  <path class="fil4 str0" d="M1730.7 680.98c-59.96,0 -87.44,39.21 -87.44,98.67l0 29.18 40.41 0 0 -31.38c0,-35.4 14.54,-56.66 45.93,-56.66 31.39,0 46.03,21.26 46.03,56.66l0 77.31 -68.39 0 0 39.21 68.39 0 0 90.85c0,35.3 -14.64,56.56 -46.03,56.56 -31.38,0 -45.93,-21.26 -45.93,-56.56l0 -44.82 -40.91 0 0 42.52c0,59.46 27.98,98.67 87.95,98.67 60.06,0 88.04,-39.21 88.04,-98.67l0 -202.87c0,-59.46 -27.98,-98.67 -88.04,-98.67l-0.01 0zm291.82 219.71l0 176.59 43.72 0 0 -392.39 -43.72 0 0 176.59 -96.47 0 0 -176.59 -43.72 0 0 392.39 43.72 0 0 -176.59 96.47 0zm153.83 -42.02l0 -133.97 117.73 0 0 -39.81 -161.45 0 0 392.39 161.45 0 0 -39.81 -117.73 0 0 -139.59 95.87 0 0 -39.21 -95.87 0 0 0zm179.7 -173.78l0 392.39 43.72 0 0 -154.73 38.71 0c62.17,0 91.35,-32.49 91.35,-94.66l0 -47.13c0,-59.37 -26.37,-95.87 -88.04,-95.87l-85.74 0zm43.72 198.45l0 -158.64 42.02 0c31.99,0 44.82,17.95 44.82,53.85l0 52.15c0,37.5 -15.64,52.64 -48.13,52.64l-38.71 0zm342.76 -158.64l0 -39.81 -156.44 0 0 392.39 43.22 0 0 -352.58 113.22 0 0 0zm60.87 257.82c0,59.46 29.68,98.67 89.65,98.67 60.57,0 90.25,-39.21 90.25,-98.67l0 -202.87c0,-59.96 -29.68,-98.67 -90.25,-98.67 -59.97,0 -89.65,38.71 -89.65,98.67l0 202.87zm43.12 -205.07c0,-35.4 15.14,-56.66 46.53,-56.66 31.89,0 46.53,21.26 46.53,56.66l0 207.37c0,35.91 -14.64,56.56 -46.53,56.56 -31.39,0 -46.53,-20.65 -46.53,-56.56l0 -207.37z"/>
  <g id="_2150173265344">
   <path class="fil4 str0" d="M1696.21 1400.79l-27.68 0 0 -134.38 -28.98 0 0 -19.66c11.63,0 19.96,-1.5 25.17,-4.51 5.42,-3.31 9.63,-9.22 12.84,-17.55l18.65 0 0 176.09 0 0.01zm19.35 -41.82l0 -13.84 26.18 0 0 15.95c0,11.33 4.81,17.04 14.34,17.04 9.52,0 14.34,-5.71 14.34,-17.04l0 -39.52c0,-11.63 -4.82,-17.34 -14.34,-17.34 -9.53,0 -14.34,5.71 -14.34,17.34l0 1.51 -26.18 0 5.02 -98.38 73 0 0 25.17 -48.33 0 -2.31 42.02c5.41,-8.62 13.54,-12.83 24.47,-12.83 20.45,0 30.68,13.33 30.68,40.21l0 39.71c0,14.34 -3.51,25.27 -10.53,32.89 -7.12,7.62 -17.34,11.43 -30.78,11.43 -13.34,0 -23.57,-3.81 -30.69,-11.43 -7.02,-7.62 -10.53,-18.55 -10.53,-32.89z"/>
   <path class="fil4 str0" d="M1855.65 1400.99c-2.6,0 -5.21,-0.2 -7.72,-0.71l0 -24.36c1.31,0.3 2.71,0.5 4.21,0.5 5.62,0 9.43,-1.41 11.74,-4.21 2.3,-2.71 3.51,-7.63 3.61,-14.75l4.31 -132.76 78.02 0 0 176.09 -27.68 0 0 -150.93 -24.17 0 -3.01 106.1c-0.3,15.85 -3.51,27.28 -9.52,34.4 -6.12,7.12 -15.95,10.63 -29.79,10.63l0 0zm190.23 -0.2l-75.41 0 0 -176.1 75.41 0 0 25.17 -47.73 0 0 46.53 38.01 0 0 25.17 -38.01 0 0 54.05 47.73 0 0 25.17 0 0.01zm64.18 0l-27.67 0 0 -150.93 -28.88 0 0 -25.17 85.53 0 0 25.17 -28.98 0 0 150.93zm110.21 0l-27.68 0 0 -176.1 27.68 0 0 71.7 29.68 0 0 -71.7 27.68 0 0 176.1 -27.68 0 0 -79.23 -29.68 0 0 79.23zm165.36 0l-27.68 0 -4.81 -34.5 -31.99 0 -4.71 34.5 -25.67 0 28.68 -176.1 37.5 0 28.68 176.1 0 0zm-48.63 -147.22l-12.34 88.85 24.97 0 -12.63 -88.85zm129.66 147.22l-27.68 0 0 -176.1 40.72 0c27.47,0 41.21,14.44 41.21,43.52l0 17.35c0,28.98 -13.74,43.52 -41.21,43.52l-13.04 0 0 71.7 0 0.01zm0 -150.93l0 54.06 13.03 0c4.72,0 8.13,-1.31 10.33,-3.92 2.21,-2.6 3.21,-6.81 3.21,-12.73l0 -20.86c0,-5.81 -1,-10.13 -3.21,-12.73 -2.2,-2.61 -5.61,-3.82 -10.33,-3.82l-13.03 0zm109.9 150.93l-40.71 0 0 -176.1 27.68 0 0 66.69 13.03 0c27.48,0 41.22,14.44 41.22,43.52l0 22.36c0,28.98 -13.74,43.52 -41.22,43.52l0 0.01zm84.04 0l-27.68 0 0 -176.1 27.68 0 0 176.1zm-97.07 -84.34l0 59.17 13.03 0c4.72,0 8.13,-1.31 10.33,-3.92 2.21,-2.6 3.21,-6.82 3.21,-12.73l0 -25.87c0,-5.82 -1,-10.13 -3.21,-12.74 -2.2,-2.61 -5.61,-3.91 -10.33,-3.91l-13.03 0zm145.4 84.34l-27.67 0 0 -176.1 27.67 0 0 71.7 29.69 0 0 -71.7 27.67 0 0 176.1 -27.67 0 0 -79.23 -29.69 0 0 79.23zm169.07 0l-28.98 0 -23.16 -77.52 -11.23 22.16 0 55.36 -27.68 0 0 -176.1 27.68 0 0 75.72 34.69 -75.72 28.18 0 -32.99 64.58 33.49 111.52zm88.55 0l-75.51 0 0 -176.1 75.51 0 0 25.17 -47.83 0 0 46.53 38.01 0 0 25.17 -38.01 0 0 54.05 47.83 0 0 25.17 0 0.01z"/>
  </g>
 </g>
</svg>
