<?xml version="1.0"?>
<svg xmlns="http://www.w3.org/2000/svg" xmlns:xlink="http://www.w3.org/1999/xlink" xmlns:svgjs="http://svgjs.com/svgjs" version="1.1" width="512" height="512" x="0" y="0" viewBox="0 0 512 512" style="enable-background:new 0 0 512 512" xml:space="preserve" class=""><g><g xmlns="http://www.w3.org/2000/svg"><path d="m180 8.97v450h125.904l-13.484 44.061 84.58-42.291 84.581 42.29-13.484-44.061h63.903v-351.213l-98.787-98.786zm242 51.213 38.787 38.787h-38.787zm-45 367.016-35.419 17.71 14.936-48.806c6.516 1.853 13.381 2.867 20.483 2.867s13.967-1.014 20.483-2.867l14.936 48.806zm0-58.229c-24.813 0-45-20.187-45-45s20.187-45 45-45 45 20.187 45 45-20.187 45-45 45zm61.915 60-14.392-47.025c16.763-13.766 27.477-34.642 27.477-57.975 0-41.355-33.645-75-75-75s-75 33.645-75 75c0 23.333 10.714 44.209 27.477 57.975l-14.392 47.025h-105.085v-390h182v90h90v300z" fill="#ffffff" data-original="#000000" style="" class=""/><path d="m240 128.97h122v30h-122z" fill="#ffffff" data-original="#000000" style="" class=""/><path d="m240 188.97h212v30h-212z" fill="#ffffff" data-original="#000000" style="" class=""/><path d="m362 308.97h30v30h-30z" fill="#ffffff" data-original="#000000" style="" class=""/><path d="m30 83.97c0-8.271 6.729-15 15-15h15v390h90c0-18.326 0-429.389 0-450h-90v30h-15c-24.813 0-45 20.187-45 45v165h30zm90 345h-30v-210h30zm0-390v150h-30v-150z" fill="#ffffff" data-original="#000000" style="" class=""/></g></g></svg>
